<?xml version="1.0" encoding="iso-8859-1"?>
<!-- Uploaded to: SVG Repo, www.svgrepo.com, Generator: SVG Repo Mixer Tools -->
<svg fill="#000000" version="1.1" id="Capa_1" xmlns="http://www.w3.org/2000/svg" xmlns:xlink="http://www.w3.org/1999/xlink" 
	 viewBox="0 0 490 490" xml:space="preserve">
<g>
	<g>
		<g>
			<rect x="69.645" width="222.8" height="40.4"/>
			<path d="M360.845,188.2c0,0-83.2,110.8-83.2,188.2c0,45.5,37.3,82.4,83.2,82.4s80.9-36.9,83.2-82.4
				C447.645,305.7,360.845,188.2,360.845,188.2z"/>
			<rect x="108.845" y="60.3" width="144.7" height="25.3"/>
			<path d="M257.445,376.4c0-52.1,33.1-116.3,58.7-157.5v-37.7c0-4.7-1.6-8.9-4.3-12.4l-50.6-63.4h-160.5l-50.6,63.4
				c-2.7,3.5-4.3,7.8-4.3,12.4v287.4c0,11.8,9.6,21.4,21.4,21.4h227.5c11.8,0,21.4-9.6,21.4-21.4l0,0
				C281.545,451.9,257.445,416.9,257.445,376.4z"/>
		</g>
	</g>
</g>
</svg>