<?xml version="1.0" encoding="iso-8859-1"?>
<!-- Uploaded to: SVG Repo, www.svgrepo.com, Generator: SVG Repo Mixer Tools -->
<svg fill="#000000" height="800px" width="800px" version="1.1" id="Capa_1" xmlns="http://www.w3.org/2000/svg" xmlns:xlink="http://www.w3.org/1999/xlink" 
	 viewBox="0 0 490 490" xml:space="preserve">
<g>
	<g>
		<path d="M355.65,0h-221.4c-10.9,0-19.8,8.9-19.8,19.8v450.4c0,10.9,8.9,19.8,19.8,19.8h221.5c10.9,0,19.8-8.9,19.8-19.8V19.8
			C375.55,8.9,366.55,0,355.65,0z M183.95,435.2c0,6.2-5.1,11.7-11.7,11.7h-14.8c-6.2,0-11.7-5.1-11.7-11.7v-83.5
			c0-6.2,5.1-11.7,11.7-11.7h14.8c6.2,0,11.7,5.1,11.7,11.7V435.2z M183.95,286.4c0,6.2-5.1,11.7-11.7,11.7h-14.8
			c-6.2,0-11.7-5.1-11.7-11.7v-83.2c0-6.2,5.1-11.7,11.7-11.7h14.8c6.2,0,11.7,5.1,11.7,11.7V286.4z M183.95,137.9
			c0,6.2-5.1,11.7-11.7,11.7h-14.8c-6.2,0-11.7-5.1-11.7-11.7V54.4c0-6.2,5.1-11.7,11.7-11.7h14.8c6.2,0,11.7,5.1,11.7,11.7V137.9z
			 M263.65,435.2c0,6.2-5.1,11.7-11.7,11.7h-14.8c-6.2,0-11.7-5.1-11.7-11.7v-83.5c0-6.2,5.1-11.7,11.7-11.7h14.8
			c6.2,0,11.7,5.1,11.7,11.7V435.2z M263.65,286.4c0,6.2-5.1,11.7-11.7,11.7h-14.8c-6.2,0-11.7-5.1-11.7-11.7v-83.2
			c0-6.2,5.1-11.7,11.7-11.7h14.8c6.2,0,11.7,5.1,11.7,11.7V286.4z M263.65,137.9c0,6.2-5.1,11.7-11.7,11.7h-14.8
			c-6.2,0-11.7-5.1-11.7-11.7V54.4c0-6.2,5.1-11.7,11.7-11.7h14.8c6.2,0,11.7,5.1,11.7,11.7V137.9z M343.65,435.2
			c0,6.2-5.1,11.7-11.7,11.7h-14.8c-6.2,0-11.7-5.1-11.7-11.7v-83.5c0-6.2,5.1-11.7,11.7-11.7h14.8c6.2,0,11.7,5.1,11.7,11.7V435.2z
			 M343.65,286.4c0,6.2-5.1,11.7-11.7,11.7h-14.8c-6.2,0-11.7-5.1-11.7-11.7v-83.2c0-6.2,5.1-11.7,11.7-11.7h14.8
			c6.2,0,11.7,5.1,11.7,11.7V286.4z M343.65,137.9c0,6.2-5.1,11.7-11.7,11.7h-14.8c-6.2,0-11.7-5.1-11.7-11.7V54.4
			c0-6.2,5.1-11.7,11.7-11.7h14.8c6.2,0,11.7,5.1,11.7,11.7V137.9z"/>
	</g>
</g>
</svg>